<svg xmlns="http://www.w3.org/2000/svg" xmlns:xlink="http://www.w3.org/1999/xlink" width="13.941" height="14.012" viewBox="0 0 13.941 14.012">
  <defs>
    <clipPath id="clip-path">
      <rect id="Rectangle_1" data-name="Rectangle 1" width="13.941" height="14.012" transform="translate(0 0)" fill="#4b647e"/>
    </clipPath>
  </defs>
  <g id="Group_1" data-name="Group 1" transform="translate(0 0)" clip-path="url(#clip-path)">
    <path id="phone" d="M-15122.16-9314.168a7.268,7.268,0,0,1-2.59-.764,13.927,13.927,0,0,1-4.61-3.611,12.716,12.716,0,0,1-2.252-3.756,5.155,5.155,0,0,1-.376-2.184,2.175,2.175,0,0,1,.638-1.371l1-1.007,0-.008a1.455,1.455,0,0,1,1-.433,1.4,1.4,0,0,1,.983.433c.193.175.38.365.555.547.087.1.182.19.273.281l.8.8a1.351,1.351,0,0,1,0,2.039c-.084.08-.167.167-.247.251-.22.22-.444.448-.684.668a5.83,5.83,0,0,0,.794,1.253,10.171,10.171,0,0,0,2.423,2.211c.084.049.187.1.293.155.071.038.147.076.224.118l.931-.927a1.417,1.417,0,0,1,1.006-.456,1.373,1.373,0,0,1,1,.456l1.618,1.621a1.424,1.424,0,0,1,.451,1.011,1.467,1.467,0,0,1-.443,1.018c-.126.133-.259.258-.384.38a6.65,6.65,0,0,0-.513.531c0,.008-.012.012-.016.016a2.208,2.208,0,0,1-1.7.729C-15122.03-9314.165-15122.1-9314.165-15122.16-9314.168Zm-7.621-12.13-1.007,1.006a1.355,1.355,0,0,0-.406.874,4.237,4.237,0,0,0,.33,1.842,11.952,11.952,0,0,0,2.119,3.527,13.058,13.058,0,0,0,4.345,3.4,6.306,6.306,0,0,0,2.3.688c.041,0,.087,0,.133,0a1.408,1.408,0,0,0,1.1-.468,7.805,7.805,0,0,1,.57-.589c.125-.125.243-.235.356-.36h0a.577.577,0,0,0,0-.919l-1.621-1.622-.008-.007a.6.6,0,0,0-.422-.213.651.651,0,0,0-.444.22l-1.006,1.007a.648.648,0,0,1-.448.2.632.632,0,0,1-.292-.072.17.17,0,0,0-.034-.019,3.014,3.014,0,0,0-.293-.16,2.739,2.739,0,0,1-.36-.2,10.64,10.64,0,0,1-2.613-2.377h0a6.521,6.521,0,0,1-.953-1.554l-.008-.026a.6.6,0,0,1,.156-.668s.008-.008.012-.016c.258-.228.493-.463.74-.718.083-.08.167-.167.25-.251a.561.561,0,0,0,0-.915l-.8-.8c-.095-.1-.189-.194-.281-.285-.179-.187-.35-.36-.527-.528l-.008-.007a.634.634,0,0,0-.433-.209A.676.676,0,0,0-15129.781-9326.3Zm8.393,4.591a3.755,3.755,0,0,0-1.056-2.027,3.7,3.7,0,0,0-2.032-1.056.392.392,0,0,1-.318-.46.4.4,0,0,1,.459-.323,4.524,4.524,0,0,1,2.457,1.276,4.528,4.528,0,0,1,1.276,2.457.4.4,0,0,1-.327.46c-.026,0-.045,0-.068,0A.4.4,0,0,1-15121.389-9321.707Zm2.525-.121a6.657,6.657,0,0,0-1.876-3.615,6.713,6.713,0,0,0-3.615-1.876.4.4,0,0,1-.327-.46.4.4,0,0,1,.456-.322,7.441,7.441,0,0,1,4.044,2.1,7.466,7.466,0,0,1,2.1,4.045.393.393,0,0,1-.323.455c-.026,0-.045,0-.068,0A.4.4,0,0,1-15118.863-9321.828Z" transform="translate(15132.01 9328.14)" fill="#4b647e" stroke="rgba(0,0,0,0)" stroke-width="1"/>
  </g>
</svg>
