<svg xmlns="http://www.w3.org/2000/svg" width="75.175" height="75.175" viewBox="0 0 75.175 75.175">
  <path id="design" d="M-14138.623-6449.826a1.2,1.2,0,0,1-1.2-1.2v-3.6H-14191v3.6a1.2,1.2,0,0,1-1.2,1.2h-9.6a1.2,1.2,0,0,1-1.2-1.2v-9.6a1.2,1.2,0,0,1,1.2-1.2h3.6V-6513h-3.6a1.2,1.2,0,0,1-1.2-1.2v-9.6a1.2,1.2,0,0,1,1.2-1.2h9.6a1.2,1.2,0,0,1,1.2,1.2v3.6h51.182v-3.6a1.2,1.2,0,0,1,1.2-1.2h9.6a1.2,1.2,0,0,1,1.2,1.2v9.6a1.2,1.2,0,0,1-1.2,1.2h-3.6v5.2a1.2,1.2,0,0,1-1.2,1.2,1.2,1.2,0,0,1-1.2-1.2v-5.2h-3.6a1.2,1.2,0,0,1-1.2-1.2v-3.6H-14191v3.6a1.2,1.2,0,0,1-1.2,1.2h-3.6v51.179h3.6a1.2,1.2,0,0,1,1.2,1.2v3.6h51.182v-3.6a1.2,1.2,0,0,1,1.2-1.2h3.6v-41.184a1.2,1.2,0,0,1,1.2-1.2,1.2,1.2,0,0,1,1.2,1.2v41.184h3.6a1.2,1.2,0,0,1,1.2,1.2v9.6a1.2,1.2,0,0,1-1.2,1.2Zm1.2-2.4h7.2v-7.2h-7.2Zm-63.173,0h7.2v-7.2h-7.2Zm63.173-63.177h7.2v-7.2h-7.2Zm-63.173,0h7.2v-7.2h-7.2Zm37.584,49.582a1.2,1.2,0,0,1-1.2-1.2,1.2,1.2,0,0,1,1.2-1.2h17.993a1.2,1.2,0,0,1,1.2,1.2,1.2,1.2,0,0,1-1.2,1.2Zm-22.792,0a1.2,1.2,0,0,1-1.2-1.2,1.2,1.2,0,0,1,1.2-1.2h17.994a1.2,1.2,0,0,1,1.2,1.2,1.2,1.2,0,0,1-1.2,1.2Zm22.792-5.1a1.2,1.2,0,0,1-1.2-1.2,1.2,1.2,0,0,1,1.2-1.2h17.993a1.2,1.2,0,0,1,1.2,1.2,1.2,1.2,0,0,1-1.2,1.2Zm-22.792,0a1.2,1.2,0,0,1-1.2-1.2,1.2,1.2,0,0,1,1.2-1.2h17.994a1.2,1.2,0,0,1,1.2,1.2,1.2,1.2,0,0,1-1.2,1.2Zm22.792-5.1a1.2,1.2,0,0,1-1.2-1.2,1.2,1.2,0,0,1,1.2-1.2h17.993a1.2,1.2,0,0,1,1.2,1.2,1.2,1.2,0,0,1-1.2,1.2Zm-22.792,0a1.2,1.2,0,0,1-1.2-1.2,1.2,1.2,0,0,1,1.2-1.2h17.994a1.2,1.2,0,0,1,1.2,1.2,1.2,1.2,0,0,1-1.2,1.2Zm0-5.1a1.2,1.2,0,0,1-1.2-1.2,1.2,1.2,0,0,1,1.2-1.2h40.785a1.2,1.2,0,0,1,1.2,1.2,1.2,1.2,0,0,1-1.2,1.2Zm0-5.1a1.2,1.2,0,0,1-1.2-1.2v-20.393a1.2,1.2,0,0,1,1.2-1.2h40.785a1.2,1.2,0,0,1,1.2,1.2v20.393a1.2,1.2,0,0,1-1.2,1.2Zm5.083-2.4h30.623l-15.313-7.653Zm17.994-8.994,16.511,8.255v-16.51Zm-21.876,8.252,16.511-8.252-16.511-8.255Zm19.191-9.6,15.313-7.653h-30.623Z" transform="translate(14203.001 6525)" fill="#fff" opacity="0.8"/>
</svg>
