<svg xmlns="http://www.w3.org/2000/svg" width="11.962" height="16.596" viewBox="0 0 11.962 16.596">
  <path id="Location" d="M-15128.9-9359.811a.459.459,0,0,1-.388-.216l-4.353-7.016a5.465,5.465,0,0,1-.816-2.883,5.488,5.488,0,0,1,5.48-5.481,5.489,5.489,0,0,1,5.481,5.481,5.49,5.49,0,0,1-.771,2.811l-4.242,7.08a.466.466,0,0,1-.388.224Zm-4.652-10.114a4.573,4.573,0,0,0,.688,2.4l3.957,6.373,3.855-6.437a4.547,4.547,0,0,0,.646-2.34,4.579,4.579,0,0,0-4.569-4.573A4.586,4.586,0,0,0-15133.55-9369.925Zm1.834,0a2.746,2.746,0,0,1,2.742-2.739,2.746,2.746,0,0,1,2.742,2.739,2.739,2.739,0,0,1-2.742,2.742A2.739,2.739,0,0,1-15131.716-9369.925Zm.908,0a1.835,1.835,0,0,0,1.834,1.834,1.83,1.83,0,0,0,1.831-1.834,1.837,1.837,0,0,0-1.831-1.831A1.84,1.84,0,0,0-15130.808-9369.925Z" transform="translate(15134.954 9375.906)" fill="#4b647e" stroke="rgba(0,0,0,0)" stroke-width="1"/>
</svg>
