<svg xmlns="http://www.w3.org/2000/svg" width="100.001" height="105.977" viewBox="0 0 100.001 105.977">
  <path id="mobile-app" d="M-14198.548-1450.022a1.554,1.554,0,0,1-1.5-1.139,1.659,1.659,0,0,1-1.574,1.139h-48.73a16.672,16.672,0,0,1-16.664-16.642v-48.717a1.658,1.658,0,0,1,1.231-1.6,1.551,1.551,0,0,1-1.231-1.517v-9.424a15.6,15.6,0,0,1,15.59-15.572h38.011a24.856,24.856,0,0,1,21.563-12.5,24.9,24.9,0,0,1,15.8,5.664,1.551,1.551,0,0,1,.207,2.184,1.55,1.55,0,0,1-2.184.211,21.775,21.775,0,0,0-13.824-4.955,21.738,21.738,0,0,0-21.73,21.7,21.738,21.738,0,0,0,21.73,21.7,21.739,21.739,0,0,0,21.733-21.7,21.6,21.6,0,0,0-3.283-11.472,1.555,1.555,0,0,1,.494-2.141,1.554,1.554,0,0,1,2.141.494,24.713,24.713,0,0,1,3.753,13.119,24.755,24.755,0,0,1-9.059,19.142v46.465a15.6,15.6,0,0,1-15.59,15.568Zm-65.147-65.359v48.717a13.348,13.348,0,0,0,13.345,13.323h48.73a1.66,1.66,0,0,1,1.607,1.248,1.553,1.553,0,0,1,1.465-1.033h6.886a12.49,12.49,0,0,0,12.485-12.464v-44.284a24.715,24.715,0,0,1-12.675,3.48,24.844,24.844,0,0,1-24.835-24.8,24.62,24.62,0,0,1,1.769-9.195h-36.507a12.492,12.492,0,0,0-12.485,12.468v9.424a1.552,1.552,0,0,1-1.126,1.491A1.657,1.657,0,0,1-14263.7-1515.381Zm27.129,47.607-1.421-4.9h-8.422l-1.4,4.887a1.153,1.153,0,0,1-1.264.759,2.872,2.872,0,0,1-1.54-.444,1.258,1.258,0,0,1-.72-1.06.964.964,0,0,1,.036-.308l6.8-22.178q.441-1.23,2.438-1.232,2.036,0,2.475,1.146l6.785,22.178a1.16,1.16,0,0,1,.067.322,1.328,1.328,0,0,1-.8,1.11,3.311,3.311,0,0,1-1.694.465C-14235.946-1467.03-14236.395-1467.277-14236.566-1467.774Zm-9.019-7.777h6.8l-3.437-11.744Zm31.555,8.192a.977.977,0,0,1-.548-.87v-22.658a1.05,1.05,0,0,1,.4-.82,1.475,1.475,0,0,1,1.01-.34h6.682a7.925,7.925,0,0,1,5.468,1.812q2.041,1.815,2.041,5.715v.276q0,3.9-2.109,5.733a8.255,8.255,0,0,1-5.6,1.83h-4.25v8.454a.979.979,0,0,1-.53.87,2.406,2.406,0,0,1-1.285.326A2.436,2.436,0,0,1-14214.03-1467.359Zm3.087-12.2h4.25a3.965,3.965,0,0,0,3.015-1.114,4.657,4.657,0,0,0,1.063-3.337v-.408a4.6,4.6,0,0,0-1.063-3.319,4,4,0,0,0-3.015-1.1h-4.25Zm-20.352,12.2a.981.981,0,0,1-.552-.87v-22.658a1.058,1.058,0,0,1,.394-.82,1.509,1.509,0,0,1,1.014-.34h6.681a7.922,7.922,0,0,1,5.468,1.812q2.041,1.815,2.041,5.715v.276q0,3.9-2.108,5.733a8.264,8.264,0,0,1-5.6,1.83h-4.251v8.454a.978.978,0,0,1-.529.87,2.408,2.408,0,0,1-1.286.326A2.419,2.419,0,0,1-14231.295-1467.359Zm3.082-12.2h4.251a3.973,3.973,0,0,0,3.015-1.114,4.657,4.657,0,0,0,1.063-3.337v-.408a4.6,4.6,0,0,0-1.063-3.319,4,4,0,0,0-3.015-1.1h-4.251Zm34.707-39.594v-16.911l-.781.713a1.662,1.662,0,0,1-2.345-.111,1.662,1.662,0,0,1,.11-2.345l3.556-3.237a1.662,1.662,0,0,1,1.79-.294,1.668,1.668,0,0,1,.988,1.518v20.667a1.659,1.659,0,0,1-1.661,1.658A1.656,1.656,0,0,1-14193.506-1519.152Z" transform="translate(14267.015 1555.999)" fill="#fff"/>
</svg>
