<svg xmlns="http://www.w3.org/2000/svg" width="100" height="115.342" viewBox="0 0 100 115.342">
  <path id="phone" d="M-15030.616-955.491c-.473-.473-.941-.972-1.4-1.486h-19.13a8.255,8.255,0,0,1-8.248-8.247v-25.389a9.827,9.827,0,0,1-8.092-9.658,9.818,9.818,0,0,1,4.27-8.092,9.806,9.806,0,0,1-4.27-8.089,9.827,9.827,0,0,1,8.092-9.658v-25.642a8.255,8.255,0,0,1,8.248-8.247h6.383a1.719,1.719,0,0,1,1.721,1.717,1.72,1.72,0,0,1-1.721,1.721h-6.383a4.817,4.817,0,0,0-4.811,4.81v1.77h61.74v-1.77a4.817,4.817,0,0,0-4.811-4.81h-38.854a1.717,1.717,0,0,1-1.72-1.721,1.716,1.716,0,0,1,1.72-1.717h38.854a8.255,8.255,0,0,1,8.247,8.247v37.682l16.816,16.812a22.147,22.147,0,0,1,2.579,3.1,1.721,1.721,0,0,1-.442,2.394,1.718,1.718,0,0,1-2.39-.442,19.031,19.031,0,0,0-2.179-2.621l-17.315-17.311-.007-.008-9.242-9.242a6.767,6.767,0,0,0-9.56,0,6.713,6.713,0,0,0-1.978,4.776,6.7,6.7,0,0,0,1.981,4.78l12.793,12.8a1.71,1.71,0,0,1,.5,1.342,1.721,1.721,0,0,1-.7,1.259,18.656,18.656,0,0,0-2.885,2.636c-5.423,6.122-5.847,16.211-.961,22.969a8.483,8.483,0,0,1,1.642,4.984v.5a8.381,8.381,0,0,1-8.372,8.372h-16.7a33.3,33.3,0,0,0,22.73,8.879,33.552,33.552,0,0,0,29.026-16.756,21.59,21.59,0,0,1-4.651,2.893,1.777,1.777,0,0,1-.715.155,1.724,1.724,0,0,1-1.565-1.01,1.721,1.721,0,0,1,.851-2.276,18.127,18.127,0,0,0,5.144-3.524,17.985,17.985,0,0,0,5.452-13.019,18.8,18.8,0,0,0-.646-4.855,1.716,1.716,0,0,1,1.21-2.106,1.72,1.72,0,0,1,2.11,1.21,22.032,22.032,0,0,1,.764,5.748c0,.212,0,.424-.008.635a37.023,37.023,0,0,1-36.971,36.347A36.742,36.742,0,0,1-15030.616-955.491Zm-25.344-9.733a4.817,4.817,0,0,0,4.811,4.81h35.447s0,0,.007,0h5.2a4.937,4.937,0,0,0,4.935-4.931v-.5a5.055,5.055,0,0,0-.994-2.968,20.95,20.95,0,0,1-3.154-6.583h-46.247Zm0-13.609h45.559a22.11,22.11,0,0,1,5.022-17.243,21.422,21.422,0,0,1,1.871-1.876l-11.446-11.443a10.146,10.146,0,0,1-2.987-7.215,10.129,10.129,0,0,1,2.987-7.207,10.214,10.214,0,0,1,14.423,0l6.312,6.307v-29.03h-61.74Zm-8.088-21.437a6.381,6.381,0,0,0,4.65,6.133V-1006.4A6.381,6.381,0,0,0-15064.048-1000.271Zm0-16.181a6.381,6.381,0,0,0,4.65,6.133v-12.267A6.381,6.381,0,0,0-15064.048-1016.451Zm33.8,50.055a1.689,1.689,0,0,1-1.687-1.69,1.688,1.688,0,0,1,1.687-1.687h10.274a1.688,1.688,0,0,1,1.687,1.687,1.689,1.689,0,0,1-1.687,1.69Z" transform="translate(15067.489 1059.999)" fill="#fff"/>
</svg>
