<svg xmlns="http://www.w3.org/2000/svg" width="100.001" height="108.118" viewBox="0 0 100.001 108.118">
  <path id="redesign" d="M-14576.094-960.965v-35.228a5.923,5.923,0,0,0-5.916-5.915,5.923,5.923,0,0,0-5.915,5.915v10.713a9.1,9.1,0,0,1-9.083,9.083,9.1,9.1,0,0,1-9.083-9.083v-6.32c-.066,0-.136.011-.2.011a4.258,4.258,0,0,1-3.031-1.254l-11.144-11.147a89.207,89.207,0,0,0-12.924,17.088,25.617,25.617,0,0,1-1.96,2.855,1.587,1.587,0,0,1-1.244.6,1.58,1.58,0,0,1-.981-.338,1.588,1.588,0,0,1-.262-2.226,21.924,21.924,0,0,0,1.718-2.5,92.383,92.383,0,0,1,13.413-17.717l-3.922-3.922a92.257,92.257,0,0,1-17.717,13.413,23.537,23.537,0,0,0-4.683,3.664,20.587,20.587,0,0,0-5.316,8.4c-.71,2.446-.493,4.47.6,5.562,2,2,6.74,1,11.265-2.38a1.586,1.586,0,0,1,2.219.324,1.581,1.581,0,0,1-.324,2.215c-3.557,2.656-7.185,4.028-10.22,4.028a7.115,7.115,0,0,1-5.18-1.946c-1.961-1.961-2.457-5.047-1.4-8.689a23.8,23.8,0,0,1,6.117-9.756,26.816,26.816,0,0,1,5.316-4.153,89.018,89.018,0,0,0,17.084-12.924l-11.143-11.143a4.288,4.288,0,0,1,0-6.059l8.4-8.406a4.258,4.258,0,0,1,3.031-1.254,4.2,4.2,0,0,1,1.033.132l19.428-19.428a4.29,4.29,0,0,1,6.06,0l3.774,3.774h17.434a1.58,1.58,0,0,1,1.582,1.582,1.583,1.583,0,0,1-1.582,1.586h-14.267l20.808,20.807a4.29,4.29,0,0,1,0,6.059l-19.428,19.428a4.284,4.284,0,0,1-1.122,4.061l-8.064,8.064v7.906a5.923,5.923,0,0,0,5.916,5.915,5.923,5.923,0,0,0,5.915-5.915v-10.713a9.093,9.093,0,0,1,9.083-9.083,9.092,9.092,0,0,1,9.079,9.083v35.228a5.925,5.925,0,0,0,5.916,5.915,5.923,5.923,0,0,0,5.915-5.915v-21.363a1.586,1.586,0,0,1,1.584-1.586,1.586,1.586,0,0,1,1.584,1.586v21.363a9.093,9.093,0,0,1-9.083,9.083A9.092,9.092,0,0,1-14576.094-960.965Zm-53.276-74.992-8.4,8.4a1.123,1.123,0,0,0,0,1.582l30.688,30.688a1.122,1.122,0,0,0,.791.327,1.124,1.124,0,0,0,.791-.327l8.4-8.4a1.124,1.124,0,0,0,0-1.582l-30.688-30.688a1.124,1.124,0,0,0-.791-.327A1.123,1.123,0,0,0-14629.37-1035.957Zm29.629,14.91a1.585,1.585,0,0,1,0,2.24l-3.208,3.212,7.405,7.405,18.994-18.99a1.113,1.113,0,0,0,0-1.578l-27.75-27.749a1.112,1.112,0,0,0-1.578,0l-18.989,18.99,2.273,2.277,12.633-12.629a1.574,1.574,0,0,1,2.236,0,1.578,1.578,0,0,1,0,2.24l-12.629,12.629,1.707,1.707,3.212-3.208a1.577,1.577,0,0,1,2.236,0,1.574,1.574,0,0,1,0,2.237l-3.208,3.212,11.217,11.217,3.208-3.212a1.577,1.577,0,0,1,1.12-.464A1.581,1.581,0,0,1-14599.741-1021.047Zm40.224,37.134h0Zm-1.732-1.935v-65.015a.554.554,0,0,0-.556-.552h-12.912a1.657,1.657,0,0,1-1.659-1.659,1.657,1.657,0,0,1,1.659-1.659h12.912a3.876,3.876,0,0,1,3.874,3.87v65.015a1.66,1.66,0,0,1-1.659,1.659A1.66,1.66,0,0,1-14561.25-985.848Zm-50.48-17.706-17.555-17.555a1.656,1.656,0,0,1,0-2.343,1.658,1.658,0,0,1,2.351,0l17.551,17.551a1.661,1.661,0,0,1,0,2.347,1.649,1.649,0,0,1-1.173.486A1.656,1.656,0,0,1-14611.73-1003.554Zm33.006-7.155a1.651,1.651,0,0,1,1.652-1.659h.018a1.657,1.657,0,0,1,1.659,1.659,1.66,1.66,0,0,1-1.659,1.659A1.669,1.669,0,0,1-14578.725-1010.709Zm11.125-3.215a1.667,1.667,0,0,1-1.667-1.637,1.656,1.656,0,0,1,1.63-1.681h.041a1.664,1.664,0,0,1,1.659,1.641,1.66,1.66,0,0,1-1.642,1.677Zm-3.072-5.982a1.654,1.654,0,0,1,1.652-1.659h.019a1.66,1.66,0,0,1,1.659,1.659,1.657,1.657,0,0,1-1.659,1.659A1.665,1.665,0,0,1-14570.672-1019.906Z" transform="translate(14657.933 1060)" fill="#fff"/>
</svg>
