<svg xmlns="http://www.w3.org/2000/svg" width="74.721" height="81.89" viewBox="0 0 74.721 81.89">
  <path id="sketch" d="M-14631.472-6442.109a3.307,3.307,0,0,1-3.3-3.3v-58.578a1.2,1.2,0,0,1,1.2-1.2,1.2,1.2,0,0,1,1.2,1.2v58.578a.908.908,0,0,0,.9.9h50.314a.9.9,0,0,0,.9-.9v-70.28a.9.9,0,0,0-.9-.9h-1.675v1.433a3.578,3.578,0,0,1-3.577,3.574,3.578,3.578,0,0,1-3.577-3.574v-1.433h-2.8v1.433a3.579,3.579,0,0,1-3.577,3.574,3.579,3.579,0,0,1-3.578-3.574v-1.433h-2.8v1.433a3.579,3.579,0,0,1-3.578,3.574,3.577,3.577,0,0,1-3.573-3.574v-1.433h-2.8v1.433a3.575,3.575,0,0,1-3.573,3.574,3.578,3.578,0,0,1-3.577-3.574v-1.433h-2.8v1.433a3.579,3.579,0,0,1-3.577,3.574,3.579,3.579,0,0,1-3.578-3.574v-1.433h-1.675a.908.908,0,0,0-.9.9v6.1a1.2,1.2,0,0,1-1.2,1.2,1.2,1.2,0,0,1-1.2-1.2v-6.1a3.307,3.307,0,0,1,3.3-3.3h1.675v-1.429a3.582,3.582,0,0,1,3.578-3.577,3.582,3.582,0,0,1,3.577,3.577v1.429h2.8v-1.429a3.581,3.581,0,0,1,3.577-3.577,3.578,3.578,0,0,1,3.573,3.577v1.429h2.8v-1.429a3.58,3.58,0,0,1,3.573-3.577,3.58,3.58,0,0,1,3.578,3.577v1.429h2.8v-1.429a3.582,3.582,0,0,1,3.578-3.577,3.582,3.582,0,0,1,3.577,3.577v1.429h2.8v-1.429a3.581,3.581,0,0,1,3.577-3.577,3.581,3.581,0,0,1,3.577,3.577v1.429h1.675a3.3,3.3,0,0,1,3.3,3.3v70.28a3.3,3.3,0,0,1-3.3,3.3Zm43.887-78.312v5.26a1.177,1.177,0,0,0,1.176,1.175,1.179,1.179,0,0,0,1.179-1.175v-5.26a1.18,1.18,0,0,0-1.179-1.179A1.177,1.177,0,0,0-14587.585-6520.422Zm-9.953,0v5.26a1.179,1.179,0,0,0,1.176,1.175,1.18,1.18,0,0,0,1.179-1.175v-5.26a1.18,1.18,0,0,0-1.179-1.179A1.18,1.18,0,0,0-14597.538-6520.422Zm-9.953,0v5.26a1.178,1.178,0,0,0,1.175,1.175,1.18,1.18,0,0,0,1.18-1.175v-5.26a1.181,1.181,0,0,0-1.18-1.179A1.179,1.179,0,0,0-14607.491-6520.422Zm-9.953,0v5.26a1.179,1.179,0,0,0,1.179,1.175,1.178,1.178,0,0,0,1.175-1.175v-5.26a1.179,1.179,0,0,0-1.175-1.179A1.18,1.18,0,0,0-14617.444-6520.422Zm-9.954,0v5.26a1.18,1.18,0,0,0,1.18,1.175,1.18,1.18,0,0,0,1.179-1.175v-5.26a1.18,1.18,0,0,0-1.179-1.179A1.181,1.181,0,0,0-14627.4-6520.422Zm58.645,76.5-3.375-10.413a6.987,6.987,0,0,1-.335-2.13v-58.582a3.948,3.948,0,0,1,3.945-3.945h4.521a3.948,3.948,0,0,1,3.944,3.945v58.582a7.016,7.016,0,0,1-.334,2.13c-.93,2.865-2.469,7.606-3.376,10.413a2.578,2.578,0,0,1-2.5,1.814A2.573,2.573,0,0,1-14568.754-6443.924Zm2.288-.72a.208.208,0,0,0,.21.136.2.2,0,0,0,.209-.154l.837-2.582a6.3,6.3,0,0,0-2.1,0c.852,2.634.834,2.6.826,2.571,0,0,0-.007,0-.007A.214.214,0,0,1-14566.466-6444.644Zm2-4.9c1.888-5.825,1.748-5.363,1.848-5.719,0-.007-7.287-.015-7.283,0,.059.217.1.327,1.847,5.719a8.64,8.64,0,0,1,1.794-.187A8.658,8.658,0,0,1-14564.464-6449.543Zm-.595-46.726v38.6h2.607v-52.342h-2.607v8.143a1.2,1.2,0,0,1-1.2,1.2,1.2,1.2,0,0,1-1.2-1.2v-8.143h-2.608v52.342h2.608v-38.6a1.2,1.2,0,0,1,1.2-1.2A1.2,1.2,0,0,1-14565.059-6496.269Zm-5.007-18.779v2.637h7.614v-2.637a1.546,1.546,0,0,0-1.546-1.546h-4.521A1.549,1.549,0,0,0-14570.065-6515.048Zm-35.417,55.427a1.2,1.2,0,0,1,0-1.7,4.835,4.835,0,0,0-3.419-8.253h-10.541a7.233,7.233,0,0,1-5.116-12.348l4.143-4.143a1.207,1.207,0,0,1,1.7-.007,1.2,1.2,0,0,1,0,1.7,4.835,4.835,0,0,0,3.416,8.252h2.416a1.2,1.2,0,0,1,1.2,1.2,1.2,1.2,0,0,1-1.2,1.2h-2.416a7.208,7.208,0,0,1-7.235-6.832l-.331.331a4.836,4.836,0,0,0,3.42,8.253h10.541a7.21,7.21,0,0,1,7.239,6.832l.326-.327a4.837,4.837,0,0,0-3.415-8.257h-2.369a1.2,1.2,0,0,1-1.2-1.2,1.2,1.2,0,0,1,1.2-1.2h2.369a7.233,7.233,0,0,1,5.116,12.348l-4.15,4.15a1.2,1.2,0,0,1-.849.35A1.2,1.2,0,0,1-14605.482-6459.622Zm9.527-6.9a1.2,1.2,0,0,1,0-1.693,6.911,6.911,0,0,0-4.885-11.8h-6.538a9.3,9.3,0,0,1-6.581-15.889l5.571-5.576a1.2,1.2,0,0,1,1.7,0,1.2,1.2,0,0,1,0,1.7,6.91,6.91,0,0,0,4.885,11.793h6.541a9.308,9.308,0,0,1,6.582,15.893l-5.575,5.572a1.191,1.191,0,0,1-.848.353A1.2,1.2,0,0,1-14595.955-6466.526Zm-16.308-27.682a6.909,6.909,0,0,0,4.885,11.793h6.538a9.314,9.314,0,0,1,9.325,9.755l1.135-1.135a6.909,6.909,0,0,0-4.885-11.793h-6.541a9.312,9.312,0,0,1-9.322-9.755Z" transform="translate(14634.773 6523.999)" fill="#fff"/>
</svg>
