<svg xmlns="http://www.w3.org/2000/svg" width="99.998" height="99.998" viewBox="0 0 99.998 99.998">
  <path id="web-elememts" d="M-15005.037-1470a1.478,1.478,0,0,1-1.479-1.478,8.2,8.2,0,0,0-8.185-8.185,8.193,8.193,0,0,0-8.186,8.185,1.481,1.481,0,0,1-1.481,1.478h-29.19a1.478,1.478,0,0,1-1.479-1.478v-8.484a1.478,1.478,0,0,1,1.479-1.478h10.049a30.957,30.957,0,0,1,1.395-3.365l-7.107-7.108a1.484,1.484,0,0,1-.121-1.955h-9.542a5.427,5.427,0,0,1-5.422-5.422v-65.288a5.427,5.427,0,0,1,5.422-5.422h89.155a5.426,5.426,0,0,1,5.421,5.422v21.8a1.477,1.477,0,0,1-1.478,1.478,1.478,1.478,0,0,1-1.479-1.478v-5.724h-94.085v49.213a2.47,2.47,0,0,0,2.465,2.465h12.483l8.722-8.718v-8.518l-5.682-5.682a1.484,1.484,0,0,1-.435-1.047v-12.128a1.476,1.476,0,0,1,.442-1.055l7.886-7.788a1.481,1.481,0,0,1,1.61-.314,1.478,1.478,0,0,1,.911,1.365v5.414a1.478,1.478,0,0,1-1.478,1.482,1.48,1.48,0,0,1-1.482-1.482v-1.875l-4.93,4.869v10.9l5.683,5.682a1.484,1.484,0,0,1,.431,1.047v9.089l6.7,6.692a30.316,30.316,0,0,1,3.365-1.391v-10.053a1.476,1.476,0,0,1,1.183-1.448v-2.888a1.468,1.468,0,0,1,.436-1.047l5.678-5.682v-10.9l-4.93-4.869v10.465a1.477,1.477,0,0,1-.691,1.251l-5.323,3.353a1.484,1.484,0,0,1-1.577,0l-5.326-3.353a1.475,1.475,0,0,1-.692-1.251v-1.66a1.479,1.479,0,0,1,1.482-1.478,1.477,1.477,0,0,1,1.478,1.478v.843l3.846,2.423,3.845-2.423v-13.187a1.479,1.479,0,0,1,.911-1.365,1.481,1.481,0,0,1,1.61.314l7.887,7.788a1.48,1.48,0,0,1,.442,1.055v12.128a1.468,1.468,0,0,1-.436,1.047l-5.678,5.682v2.246h11.637v-3.845a1.478,1.478,0,0,1,1.478-1.482h2.662v-9.115l-2.087-1.928a1.472,1.472,0,0,1-.408-1.524l3.546-11.44a1.481,1.481,0,0,1,1.414-1.04h3.947a1.481,1.481,0,0,1,1.414,1.04l3.55,11.44a1.482,1.482,0,0,1-.412,1.524l-2.087,1.928v9.115h2.661a1.479,1.479,0,0,1,1.479,1.482v10.117l8.722,8.718h13.274a2.47,2.47,0,0,0,2.465-2.465v-36.6a1.478,1.478,0,0,1,1.479-1.478,1.478,1.478,0,0,1,1.478,1.478v36.6a5.428,5.428,0,0,1-5.421,5.422h-10.333a1.479,1.479,0,0,1-.121,1.955l-7.107,7.108a30.39,30.39,0,0,1,1.4,3.365h10.049a1.481,1.481,0,0,1,1.481,1.478v8.484a1.481,1.481,0,0,1-1.481,1.478Zm12.673-2.956h15.039v-5.524h-9.645a1.481,1.481,0,0,1-1.414-1.047,27.007,27.007,0,0,0-2.019-4.866,1.48,1.48,0,0,1,.261-1.743l6.82-6.82-1.342-1.342-8.56-8.559-6.824,6.82a1.479,1.479,0,0,1-1.739.261,27.284,27.284,0,0,0-4.865-2.019,1.476,1.476,0,0,1-1.047-1.418v-9.644h-14.008v9.644a1.479,1.479,0,0,1-1.043,1.418,27.056,27.056,0,0,0-4.866,2.019,1.487,1.487,0,0,1-1.743-.261l-6.82-6.82-8.559,8.559h0l-1.343,1.342,6.824,6.82a1.485,1.485,0,0,1,.258,1.743,27.662,27.662,0,0,0-2.02,4.866,1.48,1.48,0,0,1-1.414,1.047h-9.645v5.524h15.044a22.483,22.483,0,0,1,7.024-14.854,1.481,1.481,0,0,1,2.091.064,1.482,1.482,0,0,1-.068,2.094,19.225,19.225,0,0,0-6.087,12.7h8.329a11.163,11.163,0,0,1,11.047-9.667,11.163,11.163,0,0,1,11.047,9.667h8.325a19.455,19.455,0,0,0-19.372-17.951,19.31,19.31,0,0,0-7.9,1.671,1.479,1.479,0,0,1-1.954-.749,1.482,1.482,0,0,1,.748-1.955,22.263,22.263,0,0,1,9.1-1.924A22.413,22.413,0,0,1-14992.364-1472.957Zm-13.562-38.827a1.477,1.477,0,0,1,1.184,1.448v10.049a29.967,29.967,0,0,1,3.364,1.4l6.7-6.7v-8.6h-11.244Zm1.788-17.939,1.879,1.731a1.494,1.494,0,0,1,.477,1.089v9.765h2.957v-9.765a1.5,1.5,0,0,1,.476-1.089l1.88-1.731-2.949-9.508h-1.766Zm-57.212-34.854v13.119h94.085v-13.119a2.47,2.47,0,0,0-2.465-2.465h-89.155A2.47,2.47,0,0,0-15061.35-1564.577Zm29.534,6.756a5.257,5.257,0,0,1,5.251-5.251,5.257,5.257,0,0,1,5.252,5.251,5.256,5.256,0,0,1-5.252,5.248A5.256,5.256,0,0,1-15031.815-1557.821Zm3.354,0a1.9,1.9,0,0,0,1.9,1.9,1.9,1.9,0,0,0,1.9-1.9,1.9,1.9,0,0,0-1.9-1.9A1.9,1.9,0,0,0-15028.462-1557.825Zm-15.61,0a5.257,5.257,0,0,1,5.251-5.251,5.257,5.257,0,0,1,5.252,5.251,5.256,5.256,0,0,1-5.252,5.248A5.256,5.256,0,0,1-15044.072-1557.821Zm3.354,0a1.9,1.9,0,0,0,1.9,1.9,1.9,1.9,0,0,0,1.9-1.9,1.9,1.9,0,0,0-1.9-1.9A1.9,1.9,0,0,0-15040.719-1557.825Zm-14.427,0a5.257,5.257,0,0,1,5.251-5.251,5.253,5.253,0,0,1,5.248,5.248,5.254,5.254,0,0,1-5.248,5.251A5.256,5.256,0,0,1-15055.146-1557.821Zm3.35,0a1.906,1.906,0,0,0,1.9,1.9,1.9,1.9,0,0,0,1.9-1.9,1.9,1.9,0,0,0-1.9-1.9A1.9,1.9,0,0,0-15051.8-1557.825Z" transform="translate(15064.307 1569.999)" fill="#fff"/>
</svg>
