<svg xmlns="http://www.w3.org/2000/svg" width="100.001" height="99.894" viewBox="0 0 100.001 99.894">
  <path id="website-ui" d="M-14237.406-960.107a2.441,2.441,0,0,1-2.437-2.442v-3.161a5.349,5.349,0,0,1,5.345-5.345h4.418V-976.3h-14.073a1.463,1.463,0,0,1-1.461-1.464,1.463,1.463,0,0,1,1.461-1.464h31.361v-3.662a2.884,2.884,0,0,1,2.882-2.882h1.16v-2.52h-53.321v5.553a3.516,3.516,0,0,0,3.516,3.512h5.506a1.464,1.464,0,0,1,1.464,1.464,1.464,1.464,0,0,1-1.464,1.464h-5.506a6.448,6.448,0,0,1-6.444-6.44v-70.817a6.448,6.448,0,0,1,6.444-6.441h87.116a6.447,6.447,0,0,1,6.44,6.441l-.11,70.817a6.452,6.452,0,0,1-4.983,6.272v.687a2.881,2.881,0,0,1-2.879,2.878h-27.058v1.851h4.418a5.353,5.353,0,0,1,5.349,5.345v3.161a2.445,2.445,0,0,1-2.442,2.442Zm.487-5.6v2.674h43.727v-2.674a2.42,2.42,0,0,0-2.417-2.417h-38.89A2.421,2.421,0,0,0-14236.919-965.71Zm9.767-5.345h24.2v-1.851h-6.96a2.88,2.88,0,0,1-2.878-2.878v-.519h-14.359Zm17.287-4.776h36.843v-7.017h-36.843Zm35.729-9.945h1.16a2.884,2.884,0,0,1,2.882,2.878v3.347a3.516,3.516,0,0,0,2.055-3.193V-988.3h-6.1Zm-31.69,0h28.766v-3.079h-28.766Zm31.69-15.949h1.16a2.884,2.884,0,0,1,2.882,2.878s-.021,7.457-.051,7.622h2.105v-48.868h-94.033v48.868h49.329c-.032-.165-.05-7.622-.05-7.622a2.883,2.883,0,0,1,2.878-2.878h1.164v-3.079h-1.164a2.88,2.88,0,0,1-2.878-2.878v-7.114a2.883,2.883,0,0,1,2.878-2.878h19.568a1.464,1.464,0,0,1,1.465,1.464,1.464,1.464,0,0,1-1.465,1.464h-19.519v7.017h36.843v-7.017h-8.216a1.461,1.461,0,0,1-1.465-1.464,1.461,1.461,0,0,1,1.465-1.464h8.263a2.884,2.884,0,0,1,2.882,2.878v7.114a2.882,2.882,0,0,1-2.882,2.878h-1.16Zm-35.729,9.945h36.843V-998.8h-36.843Zm4.039-9.945h28.766v-3.079h-28.766Zm-56.139-51.835v10.54h93.926v-10.54a3.516,3.516,0,0,0-3.512-3.512h-86.9A3.516,3.516,0,0,0-14261.965-1053.56Zm72.292,75.757a1.649,1.649,0,0,1-1.046-.372,1.649,1.649,0,0,1-1.045.372h-2.582a1.661,1.661,0,0,1-1.657-1.658,1.659,1.659,0,0,1,1.657-1.658h2.582a1.651,1.651,0,0,1,1.045.371,1.651,1.651,0,0,1,1.046-.371h11.259a1.66,1.66,0,0,1,1.661,1.658,1.662,1.662,0,0,1-1.661,1.658Zm-17.023,0a1.659,1.659,0,0,1-1.658-1.658,1.656,1.656,0,0,1,1.658-1.658h7.977a1.656,1.656,0,0,1,1.657,1.658,1.659,1.659,0,0,1-1.657,1.658Zm17.023-15.888a1.651,1.651,0,0,1-1.046-.371,1.65,1.65,0,0,1-1.045.371h-2.582a1.656,1.656,0,0,1-1.657-1.658,1.659,1.659,0,0,1,1.657-1.658h2.582a1.649,1.649,0,0,1,1.045.372,1.649,1.649,0,0,1,1.046-.372h11.263a1.661,1.661,0,0,1,1.657,1.658,1.659,1.659,0,0,1-1.657,1.658Zm-17.023,0a1.656,1.656,0,0,1-1.658-1.658,1.659,1.659,0,0,1,1.658-1.658h7.977a1.659,1.659,0,0,1,1.657,1.658,1.656,1.656,0,0,1-1.657,1.658Zm-23.264-8.4a1.659,1.659,0,0,1-1.6-1.238,1.659,1.659,0,0,1-1.6,1.238h-11.166a1.657,1.657,0,0,1-1.066-.387,1.651,1.651,0,0,1-1.064.387h-8.577a1.659,1.659,0,0,1-1.658-1.658,1.656,1.656,0,0,1,1.658-1.658h8.577a1.653,1.653,0,0,1,1.064.386,1.658,1.658,0,0,1,1.066-.386h11.166a1.657,1.657,0,0,1,1.6,1.237,1.657,1.657,0,0,1,1.6-1.237h14.589a1.656,1.656,0,0,1,1.658,1.658,1.659,1.659,0,0,1-1.658,1.658Zm7.895-6.1a1.656,1.656,0,0,1-1.657-1.658,1.656,1.656,0,0,1,1.657-1.658h5.427a1.659,1.659,0,0,1,1.658,1.658,1.659,1.659,0,0,1-1.658,1.658Zm-7,0a1.656,1.656,0,0,1-1.657-1.658,1.656,1.656,0,0,1,1.657-1.658h2.9a1.656,1.656,0,0,1,1.657,1.658,1.656,1.656,0,0,1-1.657,1.658Zm-18.019,0a1.654,1.654,0,0,1-1.6-1.23,1.656,1.656,0,0,1-1.6,1.23h-4.758a1.656,1.656,0,0,1-1.658-1.658,1.656,1.656,0,0,1,1.658-1.658h4.758a1.656,1.656,0,0,1,1.6,1.23,1.654,1.654,0,0,1,1.6-1.23h14.231a1.656,1.656,0,0,1,1.657,1.658,1.656,1.656,0,0,1-1.657,1.658Zm57.414-1.393a1.651,1.651,0,0,1-1.046-.371,1.651,1.651,0,0,1-1.045.371h-2.582a1.659,1.659,0,0,1-1.657-1.658,1.659,1.659,0,0,1,1.657-1.658h2.582a1.651,1.651,0,0,1,1.045.371,1.651,1.651,0,0,1,1.046-.371h11.263a1.659,1.659,0,0,1,1.657,1.658,1.659,1.659,0,0,1-1.657,1.658Zm-17.023,0a1.656,1.656,0,0,1-1.658-1.658,1.656,1.656,0,0,1,1.658-1.658h7.977a1.656,1.656,0,0,1,1.657,1.658,1.656,1.656,0,0,1-1.657,1.658Zm-34.849-4.754a1.644,1.644,0,0,1-1.163-.481,1.652,1.652,0,0,1-1.167.481h-11.166a1.659,1.659,0,0,1-1.658-1.661,1.659,1.659,0,0,1,1.658-1.658h11.166a1.653,1.653,0,0,1,1.167.481,1.646,1.646,0,0,1,1.163-.481h19.637a1.658,1.658,0,0,1,1.657,1.658,1.659,1.659,0,0,1-1.657,1.661Zm33.51-7a1.656,1.656,0,0,1-1.618-1.3,1.657,1.657,0,0,1-1.618,1.3h-4.862a1.656,1.656,0,0,1-1.657-1.658,1.656,1.656,0,0,1,1.657-1.658h4.862a1.657,1.657,0,0,1,1.618,1.3,1.656,1.656,0,0,1,1.618-1.3h14.145a1.656,1.656,0,0,1,1.657,1.658,1.656,1.656,0,0,1-1.657,1.658Zm-23.668,0a1.656,1.656,0,0,1-1.657-1.658,1.656,1.656,0,0,1,1.657-1.658h11.914a1.659,1.659,0,0,1,1.658,1.658,1.659,1.659,0,0,1-1.658,1.658Zm-10.99-1.138a1.657,1.657,0,0,1,0-2.345l4.023-4.024-2.829-2.832-3.393,8.635a1.661,1.661,0,0,1-1.543,1.052,1.675,1.675,0,0,1-.609-.118,1.66,1.66,0,0,1-.934-2.148l4.084-10.4a1.654,1.654,0,0,1,1.953-1,1.657,1.657,0,0,1,1.592.432l5.2,5.2a1.663,1.663,0,0,1,0,2.345l-5.2,5.2a1.666,1.666,0,0,1-1.175.487A1.657,1.657,0,0,1-14242.693-1022.468Zm-9.262,0-5.2-5.2a1.661,1.661,0,0,1-.487-1.174,1.659,1.659,0,0,1,.487-1.171l5.2-5.2a1.664,1.664,0,0,1,2.345,0,1.658,1.658,0,0,1,0,2.345l-4.027,4.024,4.027,4.027a1.658,1.658,0,0,1,0,2.345,1.666,1.666,0,0,1-1.175.487A1.657,1.657,0,0,1-14251.955-1022.468Zm28.723-5.273a1.656,1.656,0,0,1-1.228-.542,1.65,1.65,0,0,1-1.225.542h-5.725a1.659,1.659,0,0,1-1.658-1.661,1.659,1.659,0,0,1,1.658-1.657h5.725a1.651,1.651,0,0,1,1.225.542,1.658,1.658,0,0,1,1.228-.542h34.923a1.659,1.659,0,0,1,1.658,1.657,1.659,1.659,0,0,1-1.658,1.661Zm-13.751-21.033a4.866,4.866,0,0,1,4.861-4.862,4.867,4.867,0,0,1,4.865,4.862,4.871,4.871,0,0,1-4.865,4.869A4.87,4.87,0,0,1-14236.983-1048.774Zm3.312,0a1.553,1.553,0,0,0,1.55,1.55,1.551,1.551,0,0,0,1.551-1.55,1.551,1.551,0,0,0-1.551-1.547A1.552,1.552,0,0,0-14233.672-1048.774Zm-14.112,0a4.869,4.869,0,0,1,4.865-4.862,4.87,4.87,0,0,1,4.865,4.862,4.874,4.874,0,0,1-4.865,4.869A4.873,4.873,0,0,1-14247.784-1048.774Zm3.314,0a1.551,1.551,0,0,0,1.551,1.55,1.551,1.551,0,0,0,1.55-1.55,1.55,1.55,0,0,0-1.55-1.547A1.55,1.55,0,0,0-14244.47-1048.774Zm-13.171,0a4.869,4.869,0,0,1,4.865-4.862,4.867,4.867,0,0,1,4.865,4.862,4.871,4.871,0,0,1-4.865,4.869A4.873,4.873,0,0,1-14257.641-1048.774Zm3.319,0a1.55,1.55,0,0,0,1.546,1.55,1.551,1.551,0,0,0,1.551-1.55,1.551,1.551,0,0,0-1.551-1.547A1.549,1.549,0,0,0-14254.321-1048.774Z" transform="translate(14265.001 1060.001)" fill="#fff"/>
</svg>
