<svg xmlns="http://www.w3.org/2000/svg" width="100.001" height="90.423" viewBox="0 0 100.001 90.423">
  <path id="www" d="M-14664.419-1484.575a1.6,1.6,0,0,1-1.6-1.594V-1573.4a1.6,1.6,0,0,1,1.6-1.594h96.81a1.594,1.594,0,0,1,1.594,1.594v63.83a1.594,1.594,0,0,1-1.594,1.594,1.6,1.6,0,0,1-1.6-1.594v-49.468h-93.618v71.276h93.618v-15.426a1.6,1.6,0,0,1,1.6-1.594,1.594,1.594,0,0,1,1.594,1.594v17.023a1.594,1.594,0,0,1-1.594,1.594Zm63.83-77.659h31.382v-9.573h-31.382Zm-62.236,0h59.046v-9.573h-59.046Zm15.761,64.062a1.66,1.66,0,0,1-1.66-1.66v-8.848a1.66,1.66,0,0,1,1.66-1.66h8.849a1.66,1.66,0,0,1,1.659,1.66v8.848a1.66,1.66,0,0,1-1.659,1.66Zm1.66-3.316h5.528v-5.532h-5.528Zm50.8-.394a1.657,1.657,0,0,1-1.66-1.656,1.66,1.66,0,0,1,1.66-1.66h6.637a1.66,1.66,0,0,1,1.659,1.66,1.657,1.657,0,0,1-1.659,1.656Zm-38.15,0a1.658,1.658,0,0,1-1.66-1.656,1.661,1.661,0,0,1,1.66-1.66h32.633a1.66,1.66,0,0,1,1.66,1.66,1.655,1.655,0,0,1-1.66,1.656Zm-14.307-10.5a1.66,1.66,0,0,1-1.66-1.66v-8.848a1.66,1.66,0,0,1,1.66-1.66h8.849a1.66,1.66,0,0,1,1.659,1.66v8.848a1.66,1.66,0,0,1-1.659,1.66Zm1.66-3.316h5.528v-5.532h-5.528Zm50.8-1.056a1.66,1.66,0,0,1-1.66-1.66,1.66,1.66,0,0,1,1.66-1.66h6.637a1.66,1.66,0,0,1,1.659,1.66,1.66,1.66,0,0,1-1.659,1.66Zm-38.15,0a1.661,1.661,0,0,1-1.66-1.66,1.661,1.661,0,0,1,1.66-1.66h32.633a1.66,1.66,0,0,1,1.66,1.66,1.658,1.658,0,0,1-1.66,1.66Zm-10.773-14.568a1.654,1.654,0,0,1-1.38-1.171l-3.817-12.739a1.657,1.657,0,0,1,1.112-2.065,1.656,1.656,0,0,1,2.064,1.112l2.738,9.135,2.639-4.4a1.662,1.662,0,0,1,1.425-.806,1.665,1.665,0,0,1,1.425.806l2.635,4.4,2.738-9.135a1.664,1.664,0,0,1,2.069-1.115,1.662,1.662,0,0,1,1.111,2.065l-3.817,12.742a1.659,1.659,0,0,1-1.384,1.171,1.656,1.656,0,0,1-1.63-.791l-3.147-5.256-3.15,5.256a1.657,1.657,0,0,1-1.425.806A1.333,1.333,0,0,1-14643.531-1531.319Zm42.5,0a1.66,1.66,0,0,1-1.38-1.171l-3.821-12.742a1.661,1.661,0,0,1,1.115-2.065,1.657,1.657,0,0,1,2.065,1.112l2.738,9.139,2.639-4.406a1.656,1.656,0,0,1,1.421-.806,1.656,1.656,0,0,1,1.425.806l2.639,4.406,2.738-9.139a1.662,1.662,0,0,1,2.065-1.115,1.664,1.664,0,0,1,1.115,2.069l-3.817,12.742a1.67,1.67,0,0,1-1.384,1.171,1.984,1.984,0,0,1-.206.011,1.66,1.66,0,0,1-1.424-.806l-3.151-5.256-3.146,5.256a1.669,1.669,0,0,1-1.427.808A1.671,1.671,0,0,1-14601.03-1531.319Zm-13.32-.8-3.15-5.256-3.147,5.256a1.661,1.661,0,0,1-1.424.806,2.017,2.017,0,0,1-.207-.011,1.664,1.664,0,0,1-1.384-1.171l-3.816-12.739a1.663,1.663,0,0,1,1.115-2.069,1.657,1.657,0,0,1,2.064,1.115l2.738,9.135,2.64-4.4a1.657,1.657,0,0,1,1.421-.81,1.658,1.658,0,0,1,1.424.81l2.64,4.4,2.738-9.139a1.657,1.657,0,0,1,2.064-1.112,1.659,1.659,0,0,1,1.115,2.065l-3.816,12.742a1.664,1.664,0,0,1-1.384,1.171,1.7,1.7,0,0,1-.205.013A1.663,1.663,0,0,1-14614.351-1532.115Zm36.056-34.587a1.771,1.771,0,0,1,1.771-1.77,1.771,1.771,0,0,1,1.771,1.77,1.77,1.77,0,0,1-1.771,1.767A1.77,1.77,0,0,1-14578.295-1566.7Zm-8.366,0a1.771,1.771,0,0,1,1.771-1.77,1.769,1.769,0,0,1,1.771,1.77,1.768,1.768,0,0,1-1.771,1.767A1.77,1.77,0,0,1-14586.661-1566.7Zm-8.708,0a1.769,1.769,0,0,1,1.771-1.77,1.772,1.772,0,0,1,1.771,1.77,1.771,1.771,0,0,1-1.771,1.767A1.768,1.768,0,0,1-14595.369-1566.7Z" transform="translate(14666.017 1574.998)" fill="#fff"/>
</svg>
